<?xml version="1.0" encoding="UTF-8" standalone="no"?>
<!DOCTYPE svg PUBLIC "-//W3C//DTD SVG 1.1//EN" "http://www.w3.org/Graphics/SVG/1.1/DTD/svg11.dtd">
<svg width="100%" height="100%" viewBox="0 0 788 1394" version="1.1" xmlns="http://www.w3.org/2000/svg" xmlns:xlink="http://www.w3.org/1999/xlink" xml:space="preserve" xmlns:serif="http://www.serif.com/" style="fill-rule:evenodd;clip-rule:evenodd;stroke-linejoin:round;stroke-miterlimit:2;">
    <g transform="matrix(4.16667,0,0,4.16667,195.925,3.56438)">
        <path d="M0,328.475C0.262,328.525 0.528,328.56 0.796,328.576C2.296,328.668 3.909,328.091 4.726,326.83C5.427,325.749 5.447,324.377 5.443,323.088C5.417,313.381 4.052,303.519 4.631,293.855C5.204,284.28 8.799,275.058 13.683,266.886C19.372,257.368 26.771,249.049 34.125,240.806C41.28,232.786 48.153,224.676 55.942,217.253C72.572,201.406 89.296,185.364 104.869,168.43C125.01,146.53 136.983,116.553 136.986,86.751C136.988,68.084 131.582,49.548 119.43,35.132C108.61,22.297 94.045,15.116 78.422,9.818C48.9,-0.193 15.464,3.416 -11.854,18.164C-24.556,25.022 -42.406,35.681 -41.99,52.304C-41.881,56.701 -39.9,61.614 -38.692,65.834C-38.406,66.834 -38.05,67.928 -37.155,68.457C-36.256,68.988 -35.065,68.751 -34.205,68.16C-33.345,67.569 -32.74,66.684 -32.143,65.828C-23.996,54.146 -13.735,43.596 -1.443,36.274C21.748,22.459 52.094,24.848 76.157,35.042C86.864,39.578 96.384,45.708 101.703,56.401C104.749,62.527 106.358,69.28 107.27,76.06C109.712,94.222 107.504,113.884 99.683,130.57C93.19,144.422 80.605,155.94 69.783,166.605C65.397,170.927 60.934,175.171 56.459,179.402C44.977,190.256 33.411,201.033 22.362,212.333C1.98,233.179 -23.287,257.31 -21.568,288.935C-20.834,302.451 -15.776,319.685 -3.402,327.055C-2.342,327.686 -1.204,328.245 0,328.475" style="fill:white;fill-rule:nonzero;stroke:white;stroke-width:0.24px;"/>
    </g>
    <g transform="matrix(4.16667,0,0,4.16667,195.925,3.56438)">
        <path d="M0,328.475C0.262,328.525 0.528,328.56 0.796,328.576C2.296,328.668 3.909,328.091 4.726,326.83C5.427,325.749 5.447,324.377 5.443,323.088C5.417,313.381 4.052,303.519 4.631,293.855C5.204,284.28 8.799,275.058 13.683,266.886C19.372,257.368 26.771,249.049 34.125,240.806C41.28,232.786 48.153,224.676 55.942,217.253C72.572,201.406 89.296,185.364 104.869,168.43C125.01,146.53 136.983,116.553 136.986,86.751C136.988,68.084 131.582,49.548 119.43,35.132C108.61,22.297 94.045,15.116 78.422,9.818C48.9,-0.193 15.464,3.416 -11.854,18.164C-24.556,25.022 -42.406,35.681 -41.99,52.304C-41.881,56.701 -39.9,61.614 -38.692,65.834C-38.406,66.834 -38.05,67.928 -37.155,68.457C-36.256,68.988 -35.065,68.751 -34.205,68.16C-33.345,67.569 -32.74,66.684 -32.143,65.828C-23.996,54.146 -13.735,43.596 -1.443,36.274C21.748,22.459 52.094,24.848 76.157,35.042C86.864,39.578 96.384,45.708 101.703,56.401C104.749,62.527 106.358,69.28 107.27,76.06C109.712,94.222 107.504,113.884 99.683,130.57C93.19,144.422 80.605,155.94 69.783,166.605C65.397,170.927 60.934,175.171 56.459,179.402C44.977,190.256 33.411,201.033 22.362,212.333C1.98,233.179 -23.287,257.31 -21.568,288.935C-20.834,302.451 -15.776,319.685 -3.402,327.055C-2.342,327.686 -1.204,328.245 0,328.475Z" style="fill:white;fill-rule:nonzero;stroke:white;stroke-width:1px;stroke-linejoin:miter;stroke-miterlimit:10;"/>
    </g>
    <g transform="matrix(4.16667,0,0,4.16667,144.594,393.254)">
        <path d="M0,133.998C0.784,133.78 1.615,133.083 2.226,132.194C22.589,102.607 55.428,84.705 78.533,57.466C85.298,49.491 91.976,41.432 96.263,31.78C100.292,22.707 104.276,8.897 95.186,1.313C94.138,0.438 92.563,-0.265 91.48,0.566C90.955,0.969 90.71,1.629 90.491,2.253C85.137,17.518 76.607,29.397 65.258,40.853C54.98,51.227 44.695,61.609 33.794,71.325C25.316,78.881 16.409,86.094 9.364,95.001C1.29,105.208 -4.835,118.923 -2.176,132.145C-1.839,133.819 -0.954,134.263 0,133.998" style="fill:white;fill-rule:nonzero;stroke:white;stroke-width:0.24px;"/>
    </g>
    <g transform="matrix(4.16667,0,0,4.16667,144.594,393.254)">
        <path d="M0,133.998C0.784,133.78 1.615,133.083 2.226,132.194C22.589,102.607 55.428,84.705 78.533,57.466C85.298,49.491 91.976,41.432 96.263,31.78C100.292,22.707 104.276,8.897 95.186,1.313C94.138,0.438 92.563,-0.265 91.48,0.566C90.955,0.969 90.71,1.629 90.491,2.253C85.137,17.518 76.607,29.397 65.258,40.853C54.98,51.227 44.695,61.609 33.794,71.325C25.316,78.881 16.409,86.094 9.364,95.001C1.29,105.208 -4.835,118.923 -2.176,132.145C-1.839,133.819 -0.954,134.263 0,133.998Z" style="fill:white;fill-rule:nonzero;stroke:white;stroke-width:1px;stroke-linejoin:miter;stroke-miterlimit:10;"/>
    </g>
    <g transform="matrix(4.16667,0,0,4.16667,54.7878,649.079)">
        <path d="M0,-56.652C-0.258,-56.98 -0.596,-57.214 -0.953,-57.059C-1.232,-56.938 -1.362,-56.622 -1.459,-56.333C-3.042,-51.621 -2.178,-46.989 -2.195,-42.055C-2.214,-36.684 -2.59,-31.314 -3.324,-25.993C-3.979,-21.244 -5.043,-16.543 -5.363,-11.751C-5.516,-9.45 -6.236,-0.44 -3.039,0.366C-2.262,0.562 -1.492,0.074 -0.846,-0.402C5.214,-4.868 13.218,-11.473 14.613,-19.33C15.343,-23.44 14.061,-27.652 12.291,-31.432C8.412,-39.719 4.283,-47.913 0.303,-56.16C0.224,-56.325 0.121,-56.499 0,-56.652" style="fill:white;fill-rule:nonzero;stroke:white;stroke-width:0.24px;"/>
    </g>
    <g transform="matrix(4.16667,0,0,4.16667,54.7878,649.079)">
        <path d="M0,-56.652C-0.258,-56.98 -0.596,-57.214 -0.953,-57.059C-1.232,-56.938 -1.362,-56.622 -1.459,-56.333C-3.042,-51.621 -2.178,-46.989 -2.195,-42.055C-2.214,-36.684 -2.59,-31.314 -3.324,-25.993C-3.979,-21.244 -5.043,-16.543 -5.363,-11.751C-5.516,-9.45 -6.236,-0.44 -3.039,0.366C-2.262,0.562 -1.492,0.074 -0.846,-0.402C5.214,-4.868 13.218,-11.473 14.613,-19.33C15.343,-23.44 14.061,-27.652 12.291,-31.432C8.412,-39.719 4.283,-47.913 0.303,-56.16C0.224,-56.325 0.121,-56.499 0,-56.652Z" style="fill:white;fill-rule:nonzero;stroke:white;stroke-width:1px;stroke-linejoin:miter;stroke-miterlimit:10;"/>
    </g>
</svg>
